<svg width="112" height="47" viewBox="0 0 112 47" fill="none" xmlns="http://www.w3.org/2000/svg">
<path d="M0 46.7893C12.5055 46.7893 22.6748 36.3214 22.6748 23.3947C10.135 23.3947 0 33.8625 0 46.7893Z" fill="#7AC942"/>
<path d="M22.6748 0C10.135 0 0 10.4679 0 23.3946C12.5055 23.3946 22.6748 12.9268 22.6748 0Z" fill="#E9E147"/>
<path d="M22.6748 0V46.7892H45.3497V23.3946L22.6748 0Z" fill="#2B5859"/>
<path d="M96.2994 44.8573C95.5093 44.8573 94.4099 44.5411 94.135 43.3117H91.4896C91.8675 45.9111 94.0663 47.0351 96.3338 47.0351C98.8418 47.0351 100.834 45.8408 100.834 43.5576C100.834 42.5389 100.319 40.923 97.9485 40.3259L96.1964 39.9043C95.0283 39.6585 94.4786 39.3774 94.4786 38.7803C94.4786 37.9372 95.3718 37.6562 96.2651 37.6562C97.2614 37.6562 98.0172 38.1129 98.189 38.9559H100.731C100.766 36.8132 99.0136 35.5135 96.3682 35.5135C93.551 35.5135 91.8332 36.9537 91.8675 39.0262C91.8675 40.8528 93.1387 41.7661 95.0283 42.1876L96.8835 42.6091C97.8455 42.7848 98.2921 43.136 98.2921 43.7332C98.2577 44.4357 97.4675 44.8573 96.2994 44.8573Z" fill="#2B5859"/>
<path d="M112 41.0987C112 37.7967 110.282 35.4783 107.018 35.4783C103.72 35.4783 101.831 38.0426 101.831 41.3445C101.831 44.787 103.995 46.9649 107.19 46.9649C109.423 46.9649 111.588 45.6301 112.034 43.2414H109.252C108.874 44.2952 108.118 44.7167 107.087 44.7167C105.644 44.7167 104.785 43.6278 104.82 41.9417H112V41.0987ZM104.82 40.08C104.82 38.8505 105.644 37.6562 107.018 37.6562C108.461 37.6562 109.183 38.7451 109.183 40.08H104.82Z" fill="#2B5859"/>
<path d="M66.8564 46.7893V39.1316C66.8564 37.0591 65.173 35.654 63.1116 35.654C61.3938 35.654 60.5693 36.3917 60.054 37.1645V32.0359H57.0306V46.7893H60.0883V39.6585C60.0883 38.6398 61.0503 38.0778 62.0466 38.0778C63.0429 38.0778 63.8331 38.6398 63.8331 39.5883V46.8244H66.8564V46.7893Z" fill="#2B5859"/>
<path d="M73.4871 47C76.7165 47 78.6748 44.6465 78.6748 41.3094C78.6748 37.9372 76.7165 35.4783 73.4871 35.4783C70.3607 35.4783 68.265 37.8318 68.265 41.3094C68.2994 44.6465 70.2577 47 73.4871 47ZM73.5215 37.7967C75.1705 37.7967 75.7202 39.4477 75.7202 41.204C75.7202 42.9253 75.1705 44.6816 73.5215 44.6816C71.838 44.6816 71.254 42.9253 71.254 41.204C71.254 39.4477 71.838 37.7967 73.5215 37.7967Z" fill="#2B5859"/>
<path d="M84.1719 47C85.3743 47 86.9547 46.5434 87.3326 44.5763L87.6762 46.7893H89.978L90.0467 35.7242H86.989V42.9604C86.989 44.1196 86.1645 44.7519 85.0651 44.7519C84.1032 44.7519 83.2099 44.1899 83.2099 42.9956V35.7242H80.1522V43.3819C80.1522 45.8408 82.3854 47 84.1719 47Z" fill="#2B5859"/>
<path d="M67.8872 17.9851H64.8295V29.0501H67.8872V17.9851Z" fill="#2B5859"/>
<path d="M88.5007 17.9851L85.8896 25.2213L83.3129 17.9851H80.324L84.5154 28.6286L84.3092 29.2258C84.1718 29.5419 83.9313 30.4201 82.0761 30.2796L81.0111 30.2444V32.2467C81.0111 32.2467 81.5608 32.6331 83.0381 32.6331C84.7215 32.6331 85.9927 32.0008 87.1264 29.1555L91.4896 18.0202H88.5007V17.9851Z" fill="#2B5859"/>
<path d="M56.2062 20.163H57.9583V26.2048C57.9583 27.9963 58.6798 29.1906 61.5313 29.1906C62.5964 29.1906 63.1461 29.0501 63.4209 28.9096V26.9776H61.9779C61.3595 26.9776 61.016 26.8371 61.016 26.0292V20.163H63.4209V17.9851H61.016V14.648H58.0614V17.9851H56.2405V20.163H56.2062Z" fill="#2B5859"/>
<path d="M79.8429 21.7085C79.8429 19.3901 78.0564 17.9148 76.0981 17.9148C74.3803 17.9148 73.6245 18.6173 72.9717 19.4253V17.985H69.9828V29.0501H73.0404V21.9193C73.0404 20.9006 74.0368 20.3737 75.0331 20.3737C76.0294 20.3737 76.8196 21.006 76.8196 22.0949V29.1203H79.8772V21.7085H79.8429Z" fill="#2B5859"/>
<path d="M67.8872 13.3834H64.7952V16.1936H67.8872V13.3834Z" fill="#2B5859"/>
<path d="M88.4662 6.04188C88.4662 2.66968 86.5079 0.210785 83.2785 0.210785C80.1521 0.210785 78.0564 2.5643 78.0564 6.04188C78.0564 9.37895 80.0147 11.7325 83.2441 11.7325C86.4735 11.7325 88.4662 9.34382 88.4662 6.04188ZM81.0453 5.93649C81.0453 4.18014 81.6294 2.52917 83.3128 2.52917C84.9619 2.52917 85.5116 4.18014 85.5116 5.93649C85.5116 7.65772 84.9619 9.41407 83.3128 9.41407C81.6294 9.41407 81.0453 7.65772 81.0453 5.93649Z" fill="#2B5859"/>
<path d="M66.5472 5.83111C66.5472 2.49404 64.8295 0.210785 61.5657 0.210785C58.2675 0.210785 56.3779 2.77506 56.3779 6.077C56.3779 9.51945 58.5423 11.6973 61.7374 11.6973C63.9706 11.6973 66.135 10.3625 66.5816 7.97386H63.8675C63.4896 9.02768 62.7338 9.4492 61.7031 9.4492C60.2601 9.4492 59.4012 8.36026 59.4356 6.67416H66.616V5.83111H66.5472ZM59.3669 4.81243C59.3669 3.58298 60.1914 2.38866 61.5657 2.38866C63.0086 2.38866 63.7301 3.4776 63.7301 4.81243H59.3669Z" fill="#2B5859"/>
<path d="M72.7313 11.7325C75.308 11.7325 77.0258 10.0113 77.1975 7.65775H74.7583C74.5865 8.46567 74.0025 9.51948 72.8344 9.51948C71.3571 9.51948 70.3951 8.18466 70.3951 6.00678C70.3951 3.86403 71.3227 2.63458 72.8 2.63458C73.9337 2.63458 74.5178 3.54788 74.7583 4.53144L77.2663 4.49632C77.0945 2.10768 75.411 0.245941 72.7656 0.245941C69.708 0.245941 67.5779 2.63458 67.5779 6.04191C67.5436 9.4141 69.708 11.7325 72.7313 11.7325Z" fill="#2B5859"/>
</svg>
